<svg width="30" height="30" viewBox="0 0 30 30" fill="none" xmlns="http://www.w3.org/2000/svg">
<path d="M22.9307 21.2164C23.6609 23.1212 23.4228 24.899 22.2164 26.5498C21.0101 28.2006 19.3117 29.0259 17.1212 29.0259C16.0736 29.0259 15.0818 28.7561 14.146 28.2164C13.2088 27.6767 12.518 26.9625 12.0736 26.0736C9.43865 26.4545 7.25643 25.7796 5.52691 24.0488C3.79611 22.3193 3.08945 20.1053 3.40691 17.4069C2.45453 16.8672 1.72437 16.1294 1.21643 15.1936C0.708497 14.2564 0.454529 13.1847 0.454529 11.9783C0.454529 10.0418 1.3358 8.47802 3.09834 7.28691C4.85961 6.09707 6.58151 5.85135 8.26405 6.54976L11.2164 7.78786C11.8513 6.80373 12.6926 6.00183 13.7402 5.38215C14.7879 4.76373 15.9148 4.42278 17.1212 4.35929V0.454529H19.9783V4.74024C21.1529 5.08945 22.1212 5.63675 22.8831 6.38215C23.645 7.12881 24.2958 8.16881 24.8355 9.50214H29.0259V12.3593H25.1212C25.0577 13.5656 24.7326 14.6926 24.1459 15.7402C23.558 16.7879 22.772 17.6291 21.7879 18.264L22.9307 21.2164ZM11.1212 22.3593C11.1212 21.5021 11.1929 20.6691 11.3364 19.8602C11.4787 19.0501 11.6926 18.264 11.9783 17.5021C11.2482 17.8513 10.4621 18.0971 9.62024 18.2393C8.7796 18.3828 7.94659 18.4228 7.12119 18.3593C7.12119 19.5974 7.47802 20.5739 8.19167 21.2888C8.90659 22.0025 9.8831 22.3593 11.1212 22.3593ZM7.59738 14.5498C8.61326 14.5498 9.5104 14.4228 10.2888 14.1688C11.066 13.9148 12.0736 13.4069 13.3117 12.645L7.59738 10.264C6.67675 9.8831 5.89135 9.89071 5.24119 10.2869C4.58977 10.6844 4.26405 11.3117 4.26405 12.1688C4.26405 12.9942 4.53389 13.5974 5.07357 13.9783C5.61326 14.3593 6.45453 14.5498 7.59738 14.5498ZM17.1212 25.2164C17.9148 25.2164 18.5574 24.9383 19.0488 24.3821C19.5415 23.8272 19.6609 23.2482 19.4069 22.645L16.8355 16.1688C16.2323 17.1847 15.7644 18.2006 15.4317 19.2164C15.0977 20.2323 14.9307 21.1529 14.9307 21.9783C14.9307 23.0259 15.1136 23.8272 15.4793 24.3821C15.8437 24.9383 16.391 25.2164 17.1212 25.2164ZM20.264 14.645C20.5815 14.3275 20.8355 13.9066 21.0259 13.3821C21.2164 12.859 21.3117 12.3117 21.3117 11.7402C21.3117 10.7244 20.9783 9.86722 20.3117 9.16881C19.645 8.4704 18.8196 8.12119 17.8355 8.12119C17.264 8.12119 16.7244 8.21643 16.2164 8.40691C15.7085 8.59738 15.2799 8.86722 14.9307 9.21643L18.645 10.9307L20.264 14.645Z" fill="#2000BB"/>
</svg>
